<svg width="73" height="84" viewBox="0 0 73 84" fill="none" xmlns="http://www.w3.org/2000/svg">
<path fill-rule="evenodd" clip-rule="evenodd" d="M72.2401 21.28L36.4001 0.559998L0.560059 21.28V62.72L36.4001 83.44L72.2401 62.72V21.28ZM66.64 24.08L36.4 6.72L6.16 24.08V58.8L36.4 76.16L66.64 58.8V24.08Z" fill="#F4830F"/>
<path fill-rule="evenodd" clip-rule="evenodd" d="M36.8242 0.356666C37.0196 0.697039 36.9025 1.13162 36.5626 1.32734L1.41995 21.5612V62.1567L35.3293 82.3552L71.179 61.943C71.5198 61.7489 71.9533 61.8682 72.1471 62.2095C72.3409 62.5509 72.2217 62.9849 71.8808 63.179L35.3132 84L0 62.9652V20.7387L35.8548 0.0947387C36.1947 -0.100976 36.6287 0.0162931 36.8242 0.356666Z" fill="#211621"/>
<path fill-rule="evenodd" clip-rule="evenodd" d="M36.4001 4.66736L4.11237 23.3337V60.6663L36.4001 79.3326L68.6877 60.6663V23.3337L36.4001 4.66736ZM72.2401 21.28L36.4001 0.559998L0.560059 21.28V62.72L36.4001 83.44L72.2401 62.72V21.28Z" fill="#F4830F"/>
<path fill-rule="evenodd" clip-rule="evenodd" d="M36.5708 4.47998L64.9393 19.5824C67.6437 21.0222 67.7284 24.8662 65.0901 26.4236L10.8029 58.4698L36.5939 73.97L65.6408 56.6164C66.6556 56.0101 67.97 56.341 68.5765 57.3555C69.183 58.37 68.852 59.684 67.8371 60.2903L36.5874 78.96L4.47998 59.6637V22.2387L36.5708 4.47998ZM8.7614 54.7044L62.3657 23.0614L36.6104 9.35011L8.7614 24.7614V54.7044Z" fill="#211621"/>
</svg>
