<svg width="125" height="125" viewBox="0 0 125 125" fill="none" xmlns="http://www.w3.org/2000/svg">
<g id="Icon Desk">
<path id="Polygon 8" d="M13.3734 34.1367L62.5 5.7735L111.627 34.1367V90.8632L62.5 119.227L13.3734 90.8632V34.1367Z" stroke="black" stroke-width="10"/>
<path id="Subtract" fill-rule="evenodd" clip-rule="evenodd" d="M38 47C38 44.2386 40.2386 42 43 42H83C85.7614 42 88 44.2386 88 47V78C88 80.7614 85.7614 83 83 83H43C40.2386 83 38 80.7614 38 78V47ZM44 51C44 49.8954 44.8954 49 46 49H80C81.1046 49 82 49.8954 82 51C82 52.1046 81.1046 53 80 53H46C44.8954 53 44 52.1046 44 51ZM45.5 61C44.6716 61 44 61.6716 44 62.5C44 63.3284 44.6716 64 45.5 64H80.5C81.3284 64 82 63.3284 82 62.5C82 61.6716 81.3284 61 80.5 61H45.5ZM44 68.5C44 67.6716 44.6716 67 45.5 67H80.5C81.3284 67 82 67.6716 82 68.5C82 69.3284 81.3284 70 80.5 70H45.5C44.6716 70 44 69.3284 44 68.5ZM45.5 73C44.6716 73 44 73.6716 44 74.5C44 75.3284 44.6716 76 45.5 76H80.5C81.3284 76 82 75.3284 82 74.5C82 73.6716 81.3284 73 80.5 73H45.5Z" fill="black"/>
</g>
</svg>
