<svg width="125" height="125" viewBox="0 0 125 125" fill="none" xmlns="http://www.w3.org/2000/svg">
<path d="M13.3734 34.1367L62.5 5.7735L111.627 34.1367V90.8632L62.5 119.227L13.3734 90.8632V34.1367Z" stroke="black" stroke-width="10"/>
<circle cx="62.5" cy="62.5" r="29.5" stroke="black" stroke-width="10"/>
<path d="M56 50H64.1792C67.1943 50 69.4182 50.7552 70.8509 52.2657C72.2836 53.7514 73 55.7571 73 58.2829C73 60.8086 72.2836 62.8267 70.8509 64.3371C69.4182 65.8229 67.1943 66.5657 64.1792 66.5657H59.8491V78.5H56V50ZM63.8585 62.7029C64.8635 62.7029 65.7082 62.6162 66.3925 62.4429C67.0767 62.2448 67.622 61.9724 68.0283 61.6257C68.4346 61.2543 68.7233 60.7962 68.8943 60.2514C69.0654 59.6819 69.1509 59.0257 69.1509 58.2829C69.1509 57.54 69.0654 56.8962 68.8943 56.3514C68.7233 55.8067 68.4346 55.3486 68.0283 54.9771C67.622 54.6057 67.0767 54.3333 66.3925 54.16C65.7082 53.9619 64.8635 53.8629 63.8585 53.8629H59.8491V62.7029H63.8585Z" fill="black"/>
<rect x="52" y="63" width="13" height="3" fill="black"/>
<rect x="53" y="72" width="14" height="2" fill="black"/>
</svg>
