<svg width="125" height="125" viewBox="0 0 125 125" fill="none" xmlns="http://www.w3.org/2000/svg">
<path d="M13.3734 34.1367L62.5 5.7735L111.627 34.1367V90.8632L62.5 119.227L13.3734 90.8632V34.1367Z" stroke="black" stroke-width="10"/>
<path d="M55.4745 35H70.793C72.414 35 73.9847 35.5626 75.2371 36.5917L75.9909 37.2111C77.0686 38.0967 77.8572 39.2842 78.2554 40.6211L82.1189 53.5919C82.7068 55.5657 82.3956 57.6983 81.2682 59.4219L72.3868 73H54.143L45.1069 58.8416C44.0335 57.1598 43.7288 55.1 44.2692 53.1796L47.7319 40.8741C48.1413 39.4191 49.0107 38.1356 50.2102 37.2157L51.2144 36.4455C52.4367 35.5081 53.9341 35 55.4745 35Z" stroke="black" stroke-width="10"/>
<path d="M52 83H74V87.4286C74 87.9024 73.9327 88.3737 73.8 88.8286L73.05 91.4C72.4278 93.5333 70.4722 95 68.25 95H57.999C55.898 95 54.0211 93.6865 53.3015 91.7126L52.3025 88.9725C52.1024 88.4236 52 87.844 52 87.2598V83Z" fill="black"/>
</svg>
