<svg width="125" height="125" viewBox="0 0 125 125" fill="none" xmlns="http://www.w3.org/2000/svg">
<path d="M13.3734 34.1367L62.5 5.7735L111.627 34.1367V90.8632L62.5 119.227L13.3734 90.8632V34.1367Z" stroke="black" stroke-width="10"/>
<mask id="path-2-inside-1_213_121" fill="white">
<path d="M65.8865 67.3693C65.4411 71.0283 63.7064 74.4089 60.9936 76.9043C58.2808 79.3998 54.7675 80.8468 51.0842 80.9857C47.4008 81.1246 43.7885 79.9463 40.8954 77.6623C38.0024 75.3783 36.018 72.138 35.2983 68.523C34.5786 64.9079 35.1708 61.1547 36.9686 57.9369C38.7664 54.719 41.6521 52.2472 45.1078 50.9649C48.5636 49.6826 52.3632 49.6738 55.8249 50.9401C59.2865 52.2063 62.1836 54.6648 63.9963 57.8743L56.4601 62.1306C55.6596 60.7132 54.3802 59.6275 52.8515 59.0683C51.3228 58.5091 49.6449 58.513 48.1187 59.0793C46.5926 59.6455 45.3183 60.7371 44.5244 62.1582C43.7304 63.5792 43.4689 65.2367 43.7867 66.8331C44.1045 68.4296 44.9809 69.8605 46.2585 70.8692C47.5361 71.8779 49.1313 72.3982 50.758 72.3368C52.3846 72.2755 53.9361 71.6365 55.1341 70.5345C56.3321 69.4324 57.0982 67.9395 57.2949 66.3237L65.8865 67.3693Z"/>
</mask>
<path d="M65.8865 67.3693C65.4411 71.0283 63.7064 74.4089 60.9936 76.9043C58.2808 79.3998 54.7675 80.8468 51.0842 80.9857C47.4008 81.1246 43.7885 79.9463 40.8954 77.6623C38.0024 75.3783 36.018 72.138 35.2983 68.523C34.5786 64.9079 35.1708 61.1547 36.9686 57.9369C38.7664 54.719 41.6521 52.2472 45.1078 50.9649C48.5636 49.6826 52.3632 49.6738 55.8249 50.9401C59.2865 52.2063 62.1836 54.6648 63.9963 57.8743L56.4601 62.1306C55.6596 60.7132 54.3802 59.6275 52.8515 59.0683C51.3228 58.5091 49.6449 58.513 48.1187 59.0793C46.5926 59.6455 45.3183 60.7371 44.5244 62.1582C43.7304 63.5792 43.4689 65.2367 43.7867 66.8331C44.1045 68.4296 44.9809 69.8605 46.2585 70.8692C47.5361 71.8779 49.1313 72.3982 50.758 72.3368C52.3846 72.2755 53.9361 71.6365 55.1341 70.5345C56.3321 69.4324 57.0982 67.9395 57.2949 66.3237L65.8865 67.3693Z" fill="black" stroke="black" stroke-width="6" mask="url(#path-2-inside-1_213_121)"/>
<line x1="65.2586" y1="53.7809" x2="78.9747" y2="43.7876" stroke="black" stroke-width="3"/>
<line x1="60.6745" y1="63.5357" x2="96.6745" y2="55.5325" stroke="black" stroke-width="3"/>
<line x1="69.0183" y1="71.4233" x2="85.8652" y2="73.4685" stroke="black" stroke-width="3"/>
</svg>
