<svg width="125" height="125" fill="none" xmlns="http://www.w3.org/2000/svg"><path id="i1path" d="M13.373 34.137 62.5 5.773l49.127 28.364v56.726L62.5 119.227 13.373 90.863V34.137Z" stroke="#000" stroke-width="10"/><circle cx="62.5" cy="45.5" r="9.5" fill="#000"/><path d="M51.625 63.622a5 5 0 0 1 2.26-2.959l1.61-.959A5 5 0 0 1 58.054 59h9.55a5 5 0 0 1 2.38.603l1.939 1.05a5 5 0 0 1 2.46 3.147l4.504 17.45c.817 3.165-1.573 6.25-4.841 6.25h-22.47c-3.306 0-5.702-3.151-4.818-6.337l4.867-17.54Z" fill="black"/>

</svg>