<svg width="129" height="150" viewBox="0 0 129 150" fill="none" xmlns="http://www.w3.org/2000/svg">
<path d="M65 1.00018L129 38.0002V112L65 149L1 112V38.0002L65 1.00018Z" fill="#F4830F"/>
<path fill-rule="evenodd" clip-rule="evenodd" d="M65 8.33476L7.34342 41.6675V108.333L65 141.666L122.657 108.333V41.6675L65 8.33476ZM129 38.0002L65 1.00018L1 38.0002V112L65 149L129 112V38.0002Z" fill="#F4830F"/>
<path d="M66 10.0002L120 41.0002V103L66 134L12 103V41.0002L66 10.0002Z" fill="#EFF4EF"/>
<path fill-rule="evenodd" clip-rule="evenodd" d="M65.7574 0.637087C66.1065 1.2449 65.8973 2.02094 65.2903 2.37043L2.53562 38.5024V110.994L63.088 147.063L127.105 110.613C127.714 110.266 128.488 110.479 128.834 111.089C129.18 111.698 128.967 112.473 128.359 112.82L63.0592 150L0 112.438V37.0335L64.0264 0.169359C64.6334 -0.180131 65.4084 0.0292779 65.7574 0.637087Z" fill="#211621"/>
<path fill-rule="evenodd" clip-rule="evenodd" d="M65.3051 8.00018L115.963 34.9688C120.792 37.5398 120.944 44.4041 116.232 47.1852L19.2908 104.411L65.3463 132.089L117.216 101.101C119.028 100.018 121.375 100.609 122.458 102.421C123.541 104.232 122.95 106.579 121.138 107.661L65.3346 141L8 106.543V39.7121L65.3051 8.00018ZM15.6454 97.6867L111.367 41.1812L65.3757 16.6968L15.6454 44.217V97.6867Z" fill="#211621"/>
</svg>
